<svg version="1.1" viewBox="0.0 0.0 960.0 960.0" fill="none" stroke="none" stroke-linecap="square" stroke-miterlimit="10" xmlns:xlink="http://www.w3.org/1999/xlink" xmlns="http://www.w3.org/2000/svg"><clipPath id="p.0"><path d="m0 0l960.0 0l0 960.0l-960.0 0l0 -960.0z" clip-rule="nonzero"/></clipPath><g clip-path="url(#p.0)"><path fill="#000000" fill-opacity="0.0" d="m0 0l960.0 0l0 960.0l-960.0 0z" fill-rule="evenodd"/><path fill="#fedb01" d="m3.4461942 0.007874016l960.0 0l0 960.0l-960.0 0z" fill-rule="evenodd"/><path stroke="#000000" stroke-width="1.0" stroke-linejoin="round" stroke-linecap="butt" d="m3.4461942 0.007874016l960.0 0l0 960.0l-960.0 0z" fill-rule="evenodd"/><path fill="#000000" fill-opacity="0.0" d="m0 412.7874l960.0 0l0 134.42517l-960.0 0z" fill-rule="evenodd"/><path fill="#000000" d="m43.085938 624.0l0 -286.3281l57.03125 0l67.78125 202.73434q9.375 28.3125 13.671875 42.375q4.875 -15.625 15.234375 -45.890625l68.546875 -199.21872l50.984375 0l0 286.3281l-36.53125 0l0 -239.65622l-83.203125 239.65622l-34.171875 0l-82.8125 -243.74997l0 243.74997l-36.53125 0zm333.20312 0l0 -286.3281l57.03125 0l67.78125 202.73434q9.375 28.3125 13.671875 42.375q4.875 -15.625 15.234375 -45.890625l68.546875 -199.21872l50.984375 0l0 286.3281l-36.53125 0l0 -239.65622l-83.203125 239.65622l-34.171875 0l-82.8125 -243.74997l0 243.74997l-36.53125 0zm321.48438 -92.0l35.75 -3.125q2.53125 21.484375 11.8125 35.265625q9.28125 13.765625 28.8125 22.265625q19.53125 8.484375 43.9375 8.484375q21.6875 0 38.28125 -6.4375q16.609375 -6.453125 24.703125 -17.671875q8.109375 -11.234375 8.109375 -24.515625q0 -13.484375 -7.8125 -23.53125q-7.8125 -10.0625 -25.78125 -16.90622q-11.515625 -4.484375 -50.96875 -13.953125q-39.453125 -9.484375 -55.28125 -17.875q-20.5 -10.75 -30.5625 -26.65625q-10.0625 -15.921875 -10.0625 -35.65625q0 -21.671875 12.296875 -40.515625q12.3125 -18.859375 35.9375 -28.625q23.640625 -9.765625 52.546875 -9.765625q31.84375 0 56.15625 10.265625q24.3125 10.25 37.390625 30.171875q13.09375 19.921875 14.078125 45.109375l-36.328125 2.734375q-2.9375 -27.140625 -19.828125 -41.0q-16.890625 -13.875 -49.90625 -13.875q-34.375 0 -50.09375 12.59375q-15.71875 12.59375 -15.71875 30.375q0 15.421875 11.125 25.390625q10.9375 9.953125 57.125 20.40625q46.203125 10.453125 63.390625 18.265625q25.0 11.515625 36.90625 29.203125q11.921875 17.671844 11.921875 40.71872q0 22.84375 -13.09375 43.0625q-13.078125 20.21875 -37.59375 31.453125q-24.515625 11.234375 -55.171875 11.234375q-38.875 0 -65.140625 -11.328125q-26.265625 -11.34375 -41.21875 -34.09375q-14.9375 -22.75 -15.71875 -51.46875z" fill-rule="nonzero"/></g></svg>